<mxfile host="app.diagrams.net" modified="2023-04-06T01:29:32.949Z" agent="Mozilla/5.0 (Windows NT 10.0; Win64; x64) AppleWebKit/537.36 (KHTML, like Gecko) Chrome/101.0.0.0 Safari/537.36" etag="Fp-WW5oPfgF7D_8RomPy" version="21.1.4" type="github">
  <diagram name="第 1 页" id="tZk7zVh1FRjKpm8kulYE">
    <mxGraphModel dx="1354" dy="635" grid="1" gridSize="10" guides="1" tooltips="1" connect="1" arrows="1" fold="1" page="1" pageScale="1" pageWidth="827" pageHeight="1169" math="0" shadow="0">
      <root>
        <mxCell id="0" />
        <mxCell id="1" parent="0" />
        <mxCell id="eZ984xiOLlbAgk13nQBR-4" value="" style="edgeStyle=orthogonalEdgeStyle;rounded=0;orthogonalLoop=1;jettySize=auto;html=1;" parent="1" source="eZ984xiOLlbAgk13nQBR-1" target="eZ984xiOLlbAgk13nQBR-2" edge="1">
          <mxGeometry relative="1" as="geometry" />
        </mxCell>
        <mxCell id="eZ984xiOLlbAgk13nQBR-1" value="开始" style="strokeWidth=2;html=1;shape=mxgraph.flowchart.start_1;whiteSpace=wrap;" parent="1" vertex="1">
          <mxGeometry x="50" y="50" width="100" height="60" as="geometry" />
        </mxCell>
        <mxCell id="eZ984xiOLlbAgk13nQBR-5" value="" style="edgeStyle=orthogonalEdgeStyle;rounded=0;orthogonalLoop=1;jettySize=auto;html=1;" parent="1" source="eZ984xiOLlbAgk13nQBR-2" target="eZ984xiOLlbAgk13nQBR-3" edge="1">
          <mxGeometry relative="1" as="geometry" />
        </mxCell>
        <mxCell id="eZ984xiOLlbAgk13nQBR-2" value="校验id是否正确" style="rounded=1;whiteSpace=wrap;html=1;absoluteArcSize=1;arcSize=14;strokeWidth=2;" parent="1" vertex="1">
          <mxGeometry x="190" y="55" width="100" height="50" as="geometry" />
        </mxCell>
        <mxCell id="eZ984xiOLlbAgk13nQBR-7" value="" style="edgeStyle=orthogonalEdgeStyle;rounded=0;orthogonalLoop=1;jettySize=auto;html=1;" parent="1" source="eZ984xiOLlbAgk13nQBR-3" target="eZ984xiOLlbAgk13nQBR-6" edge="1">
          <mxGeometry relative="1" as="geometry" />
        </mxCell>
        <mxCell id="eZ984xiOLlbAgk13nQBR-3" value="权限校验（非超级管理员只能删除自己创建的模板）" style="rounded=1;whiteSpace=wrap;html=1;absoluteArcSize=1;arcSize=14;strokeWidth=2;" parent="1" vertex="1">
          <mxGeometry x="350" y="55" width="100" height="50" as="geometry" />
        </mxCell>
        <mxCell id="eZ984xiOLlbAgk13nQBR-13" value="" style="edgeStyle=orthogonalEdgeStyle;rounded=0;orthogonalLoop=1;jettySize=auto;html=1;" parent="1" source="eZ984xiOLlbAgk13nQBR-6" target="eZ984xiOLlbAgk13nQBR-8" edge="1">
          <mxGeometry relative="1" as="geometry" />
        </mxCell>
        <mxCell id="eZ984xiOLlbAgk13nQBR-6" value="判断模板状态&lt;br&gt;（发布状态不能删除）" style="rounded=1;whiteSpace=wrap;html=1;absoluteArcSize=1;arcSize=14;strokeWidth=2;" parent="1" vertex="1">
          <mxGeometry x="510" y="52.5" width="130" height="55" as="geometry" />
        </mxCell>
        <mxCell id="eZ984xiOLlbAgk13nQBR-14" value="" style="edgeStyle=orthogonalEdgeStyle;rounded=0;orthogonalLoop=1;jettySize=auto;html=1;" parent="1" source="eZ984xiOLlbAgk13nQBR-8" target="eZ984xiOLlbAgk13nQBR-9" edge="1">
          <mxGeometry relative="1" as="geometry" />
        </mxCell>
        <mxCell id="eZ984xiOLlbAgk13nQBR-8" value="删除编排页面" style="rounded=1;whiteSpace=wrap;html=1;absoluteArcSize=1;arcSize=14;strokeWidth=2;" parent="1" vertex="1">
          <mxGeometry x="680" y="50" width="125" height="60" as="geometry" />
        </mxCell>
        <mxCell id="eZ984xiOLlbAgk13nQBR-15" value="" style="edgeStyle=orthogonalEdgeStyle;rounded=0;orthogonalLoop=1;jettySize=auto;html=1;" parent="1" source="eZ984xiOLlbAgk13nQBR-9" target="eZ984xiOLlbAgk13nQBR-11" edge="1">
          <mxGeometry relative="1" as="geometry" />
        </mxCell>
        <mxCell id="eZ984xiOLlbAgk13nQBR-9" value="删除模板基本信息" style="rounded=1;whiteSpace=wrap;html=1;absoluteArcSize=1;arcSize=14;strokeWidth=2;" parent="1" vertex="1">
          <mxGeometry x="680" y="180" width="125" height="60" as="geometry" />
        </mxCell>
        <mxCell id="y9_pgHASh86s5esXUV1P-1" style="edgeStyle=orthogonalEdgeStyle;rounded=0;orthogonalLoop=1;jettySize=auto;html=1;" edge="1" parent="1" source="eZ984xiOLlbAgk13nQBR-11" target="eZ984xiOLlbAgk13nQBR-12">
          <mxGeometry relative="1" as="geometry" />
        </mxCell>
        <mxCell id="eZ984xiOLlbAgk13nQBR-11" value="删除模板数据项" style="rounded=1;whiteSpace=wrap;html=1;absoluteArcSize=1;arcSize=14;strokeWidth=2;" parent="1" vertex="1">
          <mxGeometry x="413.5" y="180" width="125" height="60" as="geometry" />
        </mxCell>
        <mxCell id="eZ984xiOLlbAgk13nQBR-12" value="结束" style="strokeWidth=2;html=1;shape=mxgraph.flowchart.terminator;whiteSpace=wrap;" parent="1" vertex="1">
          <mxGeometry x="180" y="180" width="100" height="60" as="geometry" />
        </mxCell>
      </root>
    </mxGraphModel>
  </diagram>
</mxfile>
